{
	"scenes":[{
		"nodes":[0,
		1]
	}],
	"asset":{
		"version":"2.0",
		"generator":"Created using the official Cinema 4D glTF Exporter 1.000x284978"
	},
	"accessors":[{
		"bufferView":0,
		"type":"SCALAR",
		"componentType":5123,
		"count":8094,
		"byteOffset":0,
		"min":[0],
		"max":[2486]
	},
	{
		"bufferView":1,
		"type":"VEC3",
		"componentType":5126,
		"count":2487,
		"byteOffset":0,
		"min":[-110.72058868408203,
		-2.3598785400390627,
		-71.7071762084961],
		"max":[110.72058868408203,
		230.5179443359375,
		76.40702819824219]
	},
	{
		"bufferView":1,
		"type":"VEC3",
		"componentType":5126,
		"count":2487,
		"byteOffset":12,
		"min":[-1.0,
		-1.0,
		-0.9999791383743286],
		"max":[1.0,
		0.9961973428726196,
		0.9999772310256958]
	},
	{
		"bufferView":1,
		"type":"VEC2",
		"componentType":5126,
		"count":2487,
		"byteOffset":24,
		"min":[0.0,
		0.0],
		"max":[1.0,
		1.0]
	},
	{
		"bufferView":2,
		"type":"SCALAR",
		"componentType":5123,
		"count":6885,
		"byteOffset":0,
		"min":[0],
		"max":[1481]
	},
	{
		"bufferView":3,
		"type":"VEC3",
		"componentType":5126,
		"count":1482,
		"byteOffset":0,
		"min":[-36.462379455566409,
		94.65602111816406,
		67.78306579589844],
		"max":[36.385189056396487,
		138.28561401367188,
		71.64614868164063]
	},
	{
		"bufferView":3,
		"type":"VEC3",
		"componentType":5126,
		"count":1482,
		"byteOffset":12,
		"min":[-0.9891195297241211,
		-0.9711669087409973,
		-0.00009375295485369861],
		"max":[0.9891195297241211,
		0.9724308252334595,
		1.0]
	},
	{
		"bufferView":3,
		"type":"VEC2",
		"componentType":5126,
		"count":1482,
		"byteOffset":24,
		"min":[0.0014598098350688816,
		0.0],
		"max":[0.9993225336074829,
		0.786799430847168]
	},
	{
		"bufferView":4,
		"type":"SCALAR",
		"componentType":5123,
		"count":8640,
		"byteOffset":0,
		"min":[0],
		"max":[1516]
	},
	{
		"bufferView":5,
		"type":"VEC3",
		"componentType":5126,
		"count":1517,
		"byteOffset":0,
		"min":[-979.7438354492188,
		0.0,
		-161.05752563476563],
		"max":[979.743896484375,
		647.5569458007813,
		768.7841796875]
	},
	{
		"bufferView":5,
		"type":"VEC3",
		"componentType":5126,
		"count":1517,
		"byteOffset":12,
		"min":[-0.0005625123158097267,
		0.0019375570118427277,
		0.0],
		"max":[0.0005625123158097267,
		1.0,
		0.9999982118606567]
	},
	{
		"bufferView":5,
		"type":"VEC2",
		"componentType":5126,
		"count":1517,
		"byteOffset":24,
		"min":[0.0,
		0.09999996423721314],
		"max":[1.0,
		1.0]
	},
	{
		"bufferView":6,
		"type":"SCALAR",
		"componentType":5123,
		"count":96,
		"byteOffset":0,
		"min":[0],
		"max":[33]
	},
	{
		"bufferView":7,
		"type":"VEC3",
		"componentType":5126,
		"count":34,
		"byteOffset":0,
		"min":[-41.6910514831543,
		-1.4210854715202005e-14,
		-9.627341270446778],
		"max":[9.627341270446778,
		0.0,
		9.627341270446778]
	},
	{
		"bufferView":7,
		"type":"VEC3",
		"componentType":5126,
		"count":34,
		"byteOffset":12,
		"min":[0.0,
		1.0,
		0.0],
		"max":[0.0,
		1.0,
		0.0]
	},
	{
		"bufferView":7,
		"type":"VEC2",
		"componentType":5126,
		"count":34,
		"byteOffset":24,
		"min":[0.0,
		0.0],
		"max":[1.0,
		1.0]
	}],
	"nodes":[{
		"name":"M",
		"children":[2,
		3,
		4]
	},
	{
		"name":"backwall",
		"children":[5]
	},
	{
		"name":"M-Mat",
		"mesh":0
	},
	{
		"name":"M-Mat.1",
		"mesh":1
	},
	{
		"name":"eyes",
		"children":[6]
	},
	{
		"name":"Plane",
		"mesh":2,
		"translation":[0.0,
		0.0,
		-77.94830322265625],
		"rotation":[0.0,
		0.0,
		0.0,
		-1.0],
		"scale":[1.0,
		1.0,
		1.0]
	},
	{
		"name":"Symmetry",
		"children":[7]
	},
	{
		"name":"Disc",
		"mesh":3,
		"translation":[16.0318546295166,
		124.52680206298828,
		69.56689453125],
		"rotation":[-0.7071067690849304,
		0.0,
		0.0,
		-0.7071067690849304],
		"scale":[1.0,
		1.0,
		1.0]
	}],
	"materials":[{
		"pbrMetallicRoughness":{
			"baseColorFactor":[1.0,
			1.0,
			1.0,
			0.13],
			"metallicFactor":0.0,
			"roughnessFactor":0.5
		},
		"emissiveFactor":[0.0,
		0.0,
		0.0],
		"alphaMode":"BLEND",
		"doubleSided":false,
		"name":"Mat"
	},
	{
		"pbrMetallicRoughness":{
			"baseColorFactor":[1.0,
			1.0,
			1.0,
			1.0],
			"metallicFactor":1.0,
			"roughnessFactor":0.1
		},
		"emissiveFactor":[0.0,
		0.0,
		0.0],
		"alphaMode":"OPAQUE",
		"doubleSided":false,
		"name":"Mat.1"
	},
	{
		"pbrMetallicRoughness":{
			"baseColorFactor":[0.0,
			0.0,
			0.0,
			1.0],
			"metallicFactor":1.0,
			"roughnessFactor":0.0
		},
		"emissiveFactor":[0.0,
		0.0,
		0.0],
		"alphaMode":"OPAQUE",
		"doubleSided":false,
		"name":"Mat.2"
	}],
	"meshes":[{
		"name":"M-Mat",
		"primitives":[{
			"attributes":{
				"POSITION":1,
				"NORMAL":2,
				"TEXCOORD_0":3
			},
			"indices":0,
			"material":0
		}]
	},
	{
		"name":"M-Mat.1",
		"primitives":[{
			"attributes":{
				"POSITION":5,
				"NORMAL":6,
				"TEXCOORD_0":7
			},
			"indices":4,
			"material":1
		}]
	},
	{
		"name":"Plane",
		"primitives":[{
			"attributes":{
				"POSITION":9,
				"NORMAL":10,
				"TEXCOORD_0":11
			},
			"indices":8
		}]
	},
	{
		"name":"Disc",
		"primitives":[{
			"attributes":{
				"POSITION":13,
				"NORMAL":14,
				"TEXCOORD_0":15
			},
			"indices":12,
			"material":2
		}]
	}],
	"bufferViews":[{
		"buffer":0,
		"byteOffset":0,
		"byteLength":16188,
		"target":34963
	},
	{
		"buffer":0,
		"byteOffset":16188,
		"byteLength":79584,
		"target":34962,
		"byteStride":32
	},
	{
		"buffer":1,
		"byteOffset":0,
		"byteLength":13770,
		"target":34963
	},
	{
		"buffer":1,
		"byteOffset":13772,
		"byteLength":47424,
		"target":34962,
		"byteStride":32
	},
	{
		"buffer":2,
		"byteOffset":0,
		"byteLength":17280,
		"target":34963
	},
	{
		"buffer":2,
		"byteOffset":17280,
		"byteLength":48544,
		"target":34962,
		"byteStride":32
	},
	{
		"buffer":3,
		"byteOffset":0,
		"byteLength":192,
		"target":34963
	},
	{
		"buffer":3,
		"byteOffset":192,
		"byteLength":1088,
		"target":34962,
		"byteStride":32
	}],
	"buffers":[{
		"uri":"data:application/octet-stream;base64,",
		"byteLength":95772
	},
	{
		"uri":"data:application/octet-stream;base64,",
		"byteLength":61196
	},
	{
		"uri":"data:application/octet-stream;base64,",
		"byteLength":65824
	},
	{
		"uri":"data:application/octet-stream;base64,",
		"byteLength":1280
	}]
}