{
	"asset":{
		"version":"2.0",
		"generator":"Created using the official Cinema 4D glTF Exporter 1.000x284978"
	},
	"scenes":[{
		"nodes":[0,
		1]
	}],
	"nodes":[{
		"name":"Camera",
		"camera":0,
		"translation":[2.3327832221984865,
		117.6033935546875,
		856.0650024414063],
		"rotation":[0.0000037051695471745917,
		-0.0048578111454844479,
		-1.799922522138786e-8,
		-0.9999881982803345],
		"scale":[1.0,
		1.0,
		1.0]
	},
	{
		"name":"testM",
		"children":[2,
		3,
		4]
	},
	{
		"name":"Cube",
		"mesh":0
	},
	{
		"name":"eyes",
		"children":[5]
	},
	{
		"name":"eyes.1",
		"children":[6]
	},
	{
		"name":"Symmetry",
		"children":[7]
	},
	{
		"name":"Symmetry",
		"children":[8]
	},
	{
		"name":"Subdivision Surface",
		"children":[9]
	},
	{
		"name":"Subdivision Surface",
		"children":[10]
	},
	{
		"name":"Disc",
		"mesh":1,
		"translation":[16.0318546295166,
		124.52680206298828,
		72.07955169677735],
		"rotation":[-0.7071067690849304,
		0.0,
		0.0,
		-0.7071067690849304],
		"scale":[1.0,
		1.0,
		1.0]
	},
	{
		"name":"Disc",
		"mesh":2,
		"translation":[19.31527328491211,
		116.54449462890625,
		71.85112762451172],
		"rotation":[-0.7071067690849304,
		0.0,
		0.0,
		-0.7071067690849304],
		"scale":[1.0,
		1.0,
		1.0]
	}],
	"materials":[{
		"pbrMetallicRoughness":{
			"baseColorFactor":[0.6862,
			0.8215599999999995,
			0.9400000000000001,
			0.05999999999999994],
			"metallicFactor":0.0,
			"roughnessFactor":0.5
		},
		"emissiveFactor":[0.0,
		0.0,
		0.0],
		"alphaMode":"BLEND",
		"doubleSided":false,
		"name":"Mat"
	},
	{
		"pbrMetallicRoughness":{
			"baseColorFactor":[0.0,
			0.0,
			0.0,
			1.0],
			"metallicFactor":1.0,
			"roughnessFactor":0.0
		},
		"emissiveFactor":[0.0,
		0.0,
		0.0],
		"alphaMode":"OPAQUE",
		"doubleSided":false,
		"name":"Mat.2"
	},
	{
		"pbrMetallicRoughness":{
			"baseColorFactor":[1.0,
			1.0,
			1.0,
			1.0],
			"metallicFactor":1.0,
			"roughnessFactor":0.1
		},
		"emissiveFactor":[0.0,
		0.0,
		0.0],
		"alphaMode":"OPAQUE",
		"doubleSided":false,
		"name":"Mat.1"
	}],
	"meshes":[{
		"name":"Cube",
		"primitives":[{
			"attributes":{
				"POSITION":1,
				"NORMAL":2,
				"TEXCOORD_0":3
			},
			"indices":0,
			"material":0
		}]
	},
	{
		"name":"Disc",
		"primitives":[{
			"attributes":{
				"POSITION":5,
				"NORMAL":6,
				"TEXCOORD_0":7
			},
			"indices":4,
			"material":1
		}]
	},
	{
		"name":"Disc",
		"primitives":[{
			"attributes":{
				"POSITION":9,
				"NORMAL":10,
				"TEXCOORD_0":11
			},
			"indices":8,
			"material":2
		}]
	}],
	"cameras":[{
		"type":"perspective",
		"perspective":{
			"znear":0.009999999776482582,
			"zfar":10000000000.0,
			"aspectRatio":1.7777777910232545,
			"yfov":0.5483348965644836
		}
	}],
	"accessors":[{
		"bufferView":0,
		"type":"SCALAR",
		"componentType":5123,
		"count":7968,
		"byteOffset":0,
		"min":[0],
		"max":[1560]
	},
	{
		"bufferView":1,
		"type":"VEC3",
		"componentType":5126,
		"count":1561,
		"byteOffset":0,
		"min":[-110.72058868408203,
		-2.3598785400390627,
		-71.7071762084961],
		"max":[110.72058868408203,
		230.5179443359375,
		77.19026947021485]
	},
	{
		"bufferView":1,
		"type":"VEC3",
		"componentType":5126,
		"count":1561,
		"byteOffset":12,
		"min":[-1.0,
		-1.0,
		-0.9999791383743286],
		"max":[1.0,
		0.9956426024436951,
		0.9999791383743286]
	},
	{
		"bufferView":1,
		"type":"VEC2",
		"componentType":5126,
		"count":1561,
		"byteOffset":24,
		"min":[0.0,
		0.0],
		"max":[1.0,
		1.0]
	},
	{
		"bufferView":2,
		"type":"SCALAR",
		"componentType":5123,
		"count":2304,
		"byteOffset":0,
		"min":[0],
		"max":[449]
	},
	{
		"bufferView":3,
		"type":"VEC3",
		"componentType":5126,
		"count":450,
		"byteOffset":0,
		"min":[-41.462039947509769,
		-1.4210854715202005e-14,
		-9.398329734802246],
		"max":[9.398329734802246,
		0.0,
		9.398329734802246]
	},
	{
		"bufferView":3,
		"type":"VEC3",
		"componentType":5126,
		"count":450,
		"byteOffset":12,
		"min":[0.0,
		1.0,
		0.0],
		"max":[0.0,
		1.0,
		0.0]
	},
	{
		"bufferView":3,
		"type":"VEC2",
		"componentType":5126,
		"count":450,
		"byteOffset":24,
		"min":[0.011893822811543942,
		0.011893821880221367],
		"max":[0.9881061911582947,
		0.9881061315536499]
	},
	{
		"bufferView":4,
		"type":"SCALAR",
		"componentType":5123,
		"count":2304,
		"byteOffset":0,
		"min":[0],
		"max":[449]
	},
	{
		"bufferView":5,
		"type":"VEC3",
		"componentType":5126,
		"count":450,
		"byteOffset":0,
		"min":[-55.33262634277344,
		1.4210854715202005e-14,
		-20.643604278564454],
		"max":[16.70207977294922,
		2.842170943040401e-14,
		20.643604278564454]
	},
	{
		"bufferView":5,
		"type":"VEC3",
		"componentType":5126,
		"count":450,
		"byteOffset":12,
		"min":[0.0,
		1.0,
		0.0],
		"max":[0.0,
		1.0,
		0.0]
	},
	{
		"bufferView":5,
		"type":"VEC2",
		"componentType":5126,
		"count":450,
		"byteOffset":24,
		"min":[0.011893822811543942,
		0.011893821880221367],
		"max":[0.9881061911582947,
		0.9881061315536499]
	}],
	"bufferViews":[{
		"buffer":0,
		"byteOffset":0,
		"byteLength":15936,
		"target":34963
	},
	{
		"buffer":0,
		"byteOffset":15936,
		"byteLength":49952,
		"target":34962,
		"byteStride":32
	},
	{
		"buffer":1,
		"byteOffset":0,
		"byteLength":4608,
		"target":34963
	},
	{
		"buffer":1,
		"byteOffset":4608,
		"byteLength":14400,
		"target":34962,
		"byteStride":32
	},
	{
		"buffer":2,
		"byteOffset":0,
		"byteLength":4608,
		"target":34963
	},
	{
		"buffer":2,
		"byteOffset":4608,
		"byteLength":14400,
		"target":34962,
		"byteStride":32
	}],
	"buffers":[{
		"uri":"data:application/octet-stream;base64,",
		"byteLength":65888
	},
	{
		"uri":"data:application/octet-stream;base64,",
		"byteLength":19008
	},
	{
		"uri":"data:application/octet-stream;base64,",
		"byteLength":19008
	}]
}